<svg width="627" height="336" viewBox="0 0 627 336" fill="none" xmlns="http://www.w3.org/2000/svg">
<g style="mix-blend-mode:multiply" opacity="0.15">
<mask id="mask0_81_865" style="mask-type:alpha" maskUnits="userSpaceOnUse" x="0" y="0" width="627" height="336">
<rect width="627" height="336" rx="12" fill="#0D3865"/>
</mask>
<g mask="url(#mask0_81_865)">
<g clip-path="url(#clip0_81_865)">
<path d="M21.33 -82H-62V1.33H21.33V-82Z" fill="#218BFC"/>
<path d="M104.66 -82H21.33V1.33H104.66V-82Z" fill="#145397"/>
<path d="M188 -82H104.67V1.33H188V-82Z" fill="#218BFC"/>
<path d="M271.33 -82H188V1.33H271.33V-82Z" fill="#D3E8FE"/>
<path d="M354.66 -82H271.33V1.33H354.66V-82Z" fill="#145397"/>
<path d="M438 -82H354.67V1.33H438V-82Z" fill="#218BFC"/>
<path d="M521.33 -82H438V1.33H521.33V-82Z" fill="#D3E8FE"/>
<path d="M604.66 -82H521.33V1.33H604.66V-82Z" fill="#218BFC"/>
<path d="M688 -82H604.67V1.33H688V-82Z" fill="#D3E8FE"/>
<path d="M21.33 1.33008H-62V84.6601H21.33V1.33008Z" fill="#D3E8FE"/>
<path d="M104.66 1.33008H21.33V84.6601H104.66V1.33008Z" fill="#218BFC"/>
<path d="M188 1.33008H104.67V84.6601H188V1.33008Z" fill="#D3E8FE"/>
<path d="M271.33 1.33008H188V84.6601H271.33V1.33008Z" fill="#145397"/>
<path d="M354.66 1.33008H271.33V84.6601H354.66V1.33008Z" fill="#218BFC"/>
<path d="M438 1.33008H354.67V84.6601H438V1.33008Z" fill="#0D3865"/>
<path d="M521.33 1.33008H438V84.6601H521.33V1.33008Z" fill="#1A6FCA"/>
<path d="M604.66 1.33008H521.33V84.6601H604.66V1.33008Z" fill="#145397"/>
<path d="M688 1.33008H604.67V84.6601H688V1.33008Z" fill="#0D3865"/>
<path d="M21.33 84.6699H-62V168H21.33V84.6699Z" fill="#145397"/>
<path d="M104.66 84.6699H21.33V168H104.66V84.6699Z" fill="#1A6FCA"/>
<path d="M188 84.6699H104.67V168H188V84.6699Z" fill="#0D3865"/>
<path d="M271.33 84.6699H188V168H271.33V84.6699Z" fill="#D3E8FE"/>
<path d="M354.66 84.6699H271.33V168H354.66V84.6699Z" fill="#145397"/>
<path d="M438 84.6699H354.67V168H438V84.6699Z" fill="#D3E8FE"/>
<path d="M521.33 84.6699H438V168H521.33V84.6699Z" fill="#0D3865"/>
<path d="M604.66 84.6699H521.33V168H604.66V84.6699Z" fill="#218BFC"/>
<path d="M688 84.6699H604.67V168H688V84.6699Z" fill="#D3E8FE"/>
<path d="M21.33 168H-62V251.33H21.33V168Z" fill="#D3E8FE"/>
<path d="M104.66 168H21.33V251.33H104.66V168Z" fill="#0D3865"/>
<path d="M188 168H104.67V251.33H188V168Z" fill="#145397"/>
<path d="M271.33 168H188V251.33H271.33V168Z" fill="#218BFC"/>
<path d="M354.66 168H271.33V251.33H354.66V168Z" fill="#1A6FCA"/>
<path d="M438 168H354.67V251.33H438V168Z" fill="#218BFC"/>
<path d="M521.33 168H438V251.33H521.33V168Z" fill="#D3E8FE"/>
<path d="M604.66 168H521.33V251.33H604.66V168Z" fill="#145397"/>
<path d="M688 168H604.67V251.33H688V168Z" fill="#218BFC"/>
<path d="M21.33 251.33H-62V334.66H21.33V251.33Z" fill="#218BFC"/>
<path d="M104.66 251.33H21.33V334.66H104.66V251.33Z" fill="#D3E8FE"/>
<path d="M188 251.33H104.67V334.66H188V251.33Z" fill="#218BFC"/>
<path d="M271.33 251.33H188V334.66H271.33V251.33Z" fill="#D3E8FE"/>
<path d="M354.66 251.33H271.33V334.66H354.66V251.33Z" fill="#218BFC"/>
<path d="M438 251.33H354.67V334.66H438V251.33Z" fill="#D3E8FE"/>
<path d="M521.33 251.33H438V334.66H521.33V251.33Z" fill="#218BFC"/>
<path d="M604.66 251.33H521.33V334.66H604.66V251.33Z" fill="#D3E8FE"/>
<path d="M688 251.33H604.67V334.66H688V251.33Z" fill="#0D3865"/>
<path d="M21.33 334.67H-62V418H21.33V334.67Z" fill="#145397"/>
<path d="M104.66 334.67H21.33V418H104.66V334.67Z" fill="#1A6FCA"/>
<path d="M188 334.67H104.67V418H188V334.67Z" fill="#0D3865"/>
<path d="M271.33 334.67H188V418H271.33V334.67Z" fill="#145397"/>
<path d="M354.66 334.67H271.33V418H354.66V334.67Z" fill="#1A6FCA"/>
<path d="M438 334.67H354.67V418H438V334.67Z" fill="#0D3865"/>
<path d="M521.33 334.67H438V418H521.33V334.67Z" fill="#D3E8FE"/>
<path d="M604.66 334.67H521.33V418H604.66V334.67Z" fill="#0D3865"/>
<path d="M688 334.67H604.67V418H688V334.67Z" fill="#218BFC"/>
<path d="M521.34 334.67H479.67V418H521.34V334.67Z" fill="#1A6FCA"/>
<path d="M521.33 43H438V84.67H521.33V43Z" fill="#145397"/>
<path d="M63 -40.3301V1.32993C51.9502 1.32993 41.3528 -3.05892 33.5384 -10.8714C25.7241 -18.6839 21.3327 -29.2802 21.33 -40.3301H63Z" fill="#0D3865"/>
<path d="M104.67 -40.3301C104.667 -29.2802 100.276 -18.6839 92.4616 -10.8714C84.6473 -3.05892 74.0498 1.32993 63 1.32993V-40.3301H104.67Z" fill="#1A6FCA"/>
<path d="M125.5 -40.3301H104.67V1.33992H125.5V-40.3301Z" fill="#1A6FCA"/>
<path d="M271.34 -40.3301H229.67V1.33992H271.34V-40.3301Z" fill="#218BFC"/>
<path d="M300.79 -10.8701H325.21L313 1.32989L300.79 -10.8701Z" fill="#1A6FCA"/>
<path d="M458.83 -82C464.354 -82 469.653 -79.8054 473.559 -75.899C477.465 -71.9927 479.66 -66.6945 479.66 -61.17V1.33H438V-61.17C438 -66.6945 440.195 -71.9927 444.101 -75.899C448.007 -79.8054 453.306 -82 458.83 -82Z" fill="#145397"/>
<path d="M521.33 1.33H479.67V-61.17C479.67 -63.9054 480.209 -66.6141 481.256 -69.1413C482.302 -71.6685 483.837 -73.9648 485.771 -75.899C487.705 -77.8333 490.001 -79.3676 492.529 -80.4144C495.056 -81.4612 497.765 -82 500.5 -82C506.024 -82 511.323 -79.8054 515.229 -75.899C519.135 -71.9927 521.33 -66.6945 521.33 -61.17V1.33Z" fill="#0D3865"/>
<path d="M604.67 1.33C582.569 1.33 561.372 -7.44907 545.743 -23.0762C530.114 -38.7033 521.333 -59.8986 521.33 -82C543.431 -82 564.628 -73.2209 580.257 -57.5938C595.886 -41.9667 604.667 -20.7714 604.67 1.33Z" fill="#D3E8FE"/>
<path d="M604.67 -82V1.33C604.667 -20.7714 595.886 -41.9667 580.257 -57.5938C564.628 -73.2209 543.431 -82 521.33 -82H604.67Z" fill="#1A6FCA"/>
<path d="M646.34 -82H604.67V1.33H646.34V-82Z" fill="#218BFC"/>
<path d="M604.67 43V84.67H646.33C646.331 79.1983 645.255 73.7799 643.162 68.7243C641.069 63.6688 638 59.075 634.132 55.2055C630.263 51.3359 625.67 48.2664 620.615 46.1721C615.56 44.0779 610.142 43 604.67 43Z" fill="#1A6FCA"/>
<path d="M604.67 63.8301V84.6701H625.5C625.5 79.1447 623.306 73.8455 619.4 69.9375C615.494 66.0295 610.195 63.8327 604.67 63.8301Z" fill="#218BFC"/>
<path d="M688 32.5801H604.67V43.0001H688V32.5801Z" fill="#D3E8FE"/>
<path d="M688 11.75H604.67V22.17H688V11.75Z" fill="#D3E8FE"/>
<path d="M604.67 43H563V84.67H604.67V43Z" fill="#D3E8FE"/>
<path d="M563 43H521.33V84.67H563V43Z" fill="#0D3865"/>
<path d="M552.58 53.4199H531.75V74.2499H552.58V53.4199Z" fill="#D3E8FE"/>
<path d="M490.08 61.03C495.835 61.03 500.5 52.9577 500.5 43C500.5 33.0423 495.835 24.97 490.08 24.97C484.325 24.97 479.66 33.0423 479.66 43C479.66 52.9577 484.325 61.03 490.08 61.03Z" fill="#218BFC"/>
<path d="M521.33 43.0001C521.327 46.6551 520.361 50.2448 518.531 53.4084C516.7 56.572 514.069 59.1979 510.902 61.0222C507.735 62.8465 504.143 63.8049 500.488 63.801C496.833 63.7971 493.243 62.8311 490.08 61.0001C493.247 59.1747 495.878 56.5472 497.707 53.382C499.536 50.2169 500.499 46.6257 500.499 42.9701C500.499 39.3144 499.536 35.7233 497.707 32.5581C495.878 29.393 493.247 26.7655 490.08 24.9401C493.243 23.1091 496.833 22.1431 500.488 22.1392C504.143 22.1353 507.735 23.0937 510.902 24.918C514.069 26.7423 516.7 29.3682 518.531 32.5318C520.361 35.6953 521.327 39.2851 521.33 42.9401V43.0001Z" fill="#D3E8FE"/>
<path d="M469.25 61.03C475.005 61.03 479.67 52.9577 479.67 43C479.67 33.0423 475.005 24.97 469.25 24.97C463.495 24.97 458.83 33.0423 458.83 43C458.83 52.9577 463.495 61.03 469.25 61.03Z" fill="#218BFC"/>
<path d="M469.25 60.9999C466.084 62.8317 462.491 63.7974 458.833 63.7999C455.175 63.8023 451.581 62.8414 448.412 61.0139C445.243 59.1863 442.612 56.5564 440.782 53.3889C438.952 50.2214 437.989 46.6279 437.989 42.9699C437.989 39.3119 438.952 35.7184 440.782 32.5509C442.612 29.3833 445.243 26.7535 448.412 24.9259C451.581 23.0983 455.175 22.1374 458.833 22.1399C462.491 22.1423 466.084 23.1081 469.25 24.9399C466.083 26.7653 463.452 29.3928 461.623 32.558C459.794 35.7231 458.831 39.3143 458.831 42.9699C458.831 46.6255 459.794 50.2167 461.623 53.3818C463.452 56.547 466.083 59.1745 469.25 60.9999Z" fill="#D3E8FE"/>
<path d="M354.67 84.67L396.33 43V84.67H354.67Z" fill="#145397"/>
<path d="M396.33 84.67L438 43V84.67H396.33Z" fill="#218BFC"/>
<path d="M354.67 43.0001L396.33 1.33008V43.0001H354.67Z" fill="#145397"/>
<path d="M396.33 43.0001L438 1.33008V43.0001H396.33Z" fill="#218BFC"/>
<path d="M271.33 84.67L313 43V84.67H271.33Z" fill="#1A6FCA"/>
<path d="M313 43.0001L354.67 1.33008V43.0001H313Z" fill="#D3E8FE"/>
<path d="M271.33 1.33008V84.6701L354.67 1.33008H271.33Z" fill="#0D3865"/>
<path d="M229.67 84.6701C252.684 84.6701 271.34 66.0138 271.34 43.0001C271.34 19.9864 252.684 1.33008 229.67 1.33008C206.656 1.33008 188 19.9864 188 43.0001C188 66.0138 206.656 84.6701 229.67 84.6701Z" fill="#0D3865"/>
<path d="M229.67 74.25C221.382 74.25 213.433 70.9576 207.573 65.0971C201.712 59.2366 198.42 51.288 198.42 43C198.42 34.712 201.712 26.7634 207.573 20.9029C213.433 15.0424 221.382 11.75 229.67 11.75V74.25Z" fill="#1A6FCA"/>
<path d="M229.67 53.4201C235.425 53.4201 240.09 48.7549 240.09 43.0001C240.09 37.2453 235.425 32.5801 229.67 32.5801C223.915 32.5801 219.25 37.2453 219.25 43.0001C219.25 48.7549 223.915 53.4201 229.67 53.4201Z" fill="#D3E8FE"/>
<path d="M146.33 6.33008C153.583 6.3281 160.674 8.47708 166.705 12.5052C172.737 16.5334 177.439 22.2598 180.216 28.9601C182.993 35.6605 183.72 43.034 182.307 50.1479C180.893 57.2618 177.401 63.7968 172.273 68.9261C167.145 74.0555 160.611 77.549 153.498 78.9647C146.384 80.3805 139.01 79.6549 132.309 76.8797C125.608 74.1045 119.88 69.4044 115.851 63.3739C111.821 57.3433 109.67 50.2531 109.67 43.0001C109.681 33.2796 113.546 23.9601 120.419 17.0857C127.291 10.2113 136.609 6.34331 146.33 6.33008ZM146.33 1.33008C138.088 1.33008 130.032 3.77398 123.179 8.35274C116.327 12.9315 110.986 19.4395 107.832 27.0537C104.678 34.6679 103.853 43.0463 105.461 51.1295C107.069 59.2127 111.037 66.6376 116.865 72.4652C122.692 78.2929 130.117 82.2616 138.201 83.8694C146.284 85.4772 154.662 84.652 162.276 81.4981C169.891 78.3442 176.399 73.0033 180.977 66.1507C185.556 59.2981 188 51.2416 188 43.0001C188 37.5279 186.922 32.1093 184.828 27.0537C182.734 21.998 179.665 17.4044 175.795 13.5349C171.926 9.66552 167.332 6.59613 162.276 4.50201C157.221 2.4079 151.802 1.33008 146.33 1.33008Z" fill="#1A6FCA"/>
<path d="M146.33 16.75C151.522 16.75 156.597 18.2895 160.914 21.1739C165.23 24.0583 168.595 28.158 170.582 32.9546C172.569 37.7511 173.088 43.0291 172.076 48.1211C171.063 53.2131 168.563 57.8904 164.892 61.5616C161.22 65.2327 156.543 67.7328 151.451 68.7456C146.359 69.7585 141.081 69.2386 136.285 67.2518C131.488 65.265 127.388 61.9005 124.504 57.5837C121.62 53.2669 120.08 48.1918 120.08 43C120.088 36.0405 122.856 29.3683 127.777 24.4472C132.698 19.5261 139.371 16.7579 146.33 16.75ZM146.33 11.75C140.149 11.75 134.107 13.5828 128.968 17.0166C123.829 20.4504 119.824 25.331 117.459 31.0411C115.094 36.7513 114.475 43.0347 115.68 49.0966C116.886 55.1585 119.863 60.7267 124.233 65.0971C128.603 69.4675 134.172 72.4437 140.233 73.6495C146.295 74.8553 152.579 74.2365 158.289 71.8712C163.999 69.506 168.88 65.5006 172.313 60.3616C175.747 55.2225 177.58 49.1807 177.58 43C177.569 34.7152 174.274 26.7728 168.415 20.9146C162.557 15.0564 154.615 11.7606 146.33 11.75Z" fill="#1A6FCA"/>
<path d="M146.33 27.1699C149.461 27.1699 152.521 28.0983 155.125 29.8378C157.728 31.5772 159.757 34.0495 160.955 36.942C162.153 39.8346 162.467 43.0175 161.856 46.0882C161.245 49.1589 159.737 51.9796 157.524 54.1934C155.31 56.4073 152.489 57.915 149.418 58.5258C146.348 59.1366 143.165 58.8231 140.272 57.6249C137.38 56.4268 134.907 54.3978 133.168 51.7946C131.428 49.1914 130.5 46.1308 130.5 42.9999C130.505 38.8032 132.175 34.7798 135.142 31.8123C138.11 28.8447 142.133 27.1752 146.33 27.1699ZM146.33 22.1699C142.211 22.1719 138.184 23.3952 134.76 25.6853C131.336 27.9753 128.668 31.2292 127.093 35.0356C125.518 38.8419 125.107 43.0298 125.911 47.0698C126.716 51.1097 128.701 54.8204 131.615 57.7325C134.528 60.6446 138.24 62.6275 142.28 63.4304C146.32 64.2333 150.508 63.8202 154.314 62.2434C158.119 60.6665 161.372 57.9967 163.66 54.5714C165.949 51.1462 167.17 47.1193 167.17 42.9999C167.165 37.4754 164.967 32.1787 161.06 28.2732C157.152 24.3677 151.855 22.1726 146.33 22.1699Z" fill="#1A6FCA"/>
<path d="M146.33 37.5801C147.402 37.5781 148.451 37.8943 149.344 38.4886C150.237 39.083 150.933 39.9288 151.345 40.919C151.756 41.9092 151.865 42.9993 151.657 44.0513C151.449 45.1034 150.934 46.07 150.176 46.829C149.418 47.588 148.453 48.1052 147.401 48.3152C146.349 48.5251 145.259 48.4184 144.268 48.0085C143.277 47.5985 142.43 46.9038 141.834 46.0123C141.238 45.1208 140.92 44.0725 140.92 43.0001C140.92 41.5643 141.49 40.1872 142.504 39.1711C143.518 38.1549 144.894 37.5827 146.33 37.5801ZM146.33 32.5801C144.269 32.5801 142.254 33.1912 140.541 34.3362C138.827 35.4811 137.492 37.1085 136.703 39.0125C135.914 40.9165 135.708 43.0116 136.11 45.0329C136.512 47.0542 137.505 48.9109 138.962 50.3681C140.419 51.8254 142.276 52.8178 144.297 53.2199C146.318 53.6219 148.414 53.4156 150.318 52.6269C152.222 51.8382 153.849 50.5027 154.994 48.7891C156.139 47.0756 156.75 45.061 156.75 43.0001C156.747 40.2373 155.649 37.5885 153.695 35.6349C151.742 33.6814 149.093 32.5827 146.33 32.5801Z" fill="#1A6FCA"/>
<path d="M104.67 1.33008C104.675 6.80273 103.599 12.2225 101.504 17.2781C99.4085 22.3338 96.3351 26.9256 92.46 30.7901L91.96 31.2701C89.6264 25.5015 85.6231 20.5613 80.4634 17.0827C75.3037 13.6041 69.2228 11.7457 63 11.7457C56.7772 11.7457 50.6963 13.6041 45.5366 17.0827C40.3769 20.5613 36.3737 25.5015 34.04 31.2701C30.0126 27.394 26.8106 22.7437 24.6264 17.5985C22.4422 12.4533 21.3209 6.91965 21.33 1.33008H104.67Z" fill="#1A6FCA"/>
<path d="M104.67 43C104.67 54.0516 100.28 64.6505 92.4651 72.4651C84.6505 80.2798 74.0516 84.67 63 84.67C51.9484 84.67 41.3495 80.2798 33.5349 72.4651C25.7202 64.6505 21.33 54.0516 21.33 43H31.75C31.75 51.288 35.0424 59.2366 40.9029 65.0971C46.7634 70.9576 54.712 74.25 63 74.25C71.288 74.25 79.2366 70.9576 85.0971 65.0971C90.9576 59.2366 94.25 51.288 94.25 43H104.67Z" fill="#D3E8FE"/>
<path d="M94.25 43C94.25 51.288 90.9576 59.2366 85.0971 65.0971C79.2366 70.9576 71.288 74.25 63 74.25C54.712 74.25 46.7634 70.9576 40.9029 65.0971C35.0424 59.2366 31.75 51.288 31.75 43H94.25Z" fill="#0D3865"/>
<path d="M94.25 43H31.75C31.75 34.712 35.0424 26.7634 40.9029 20.9029C46.7634 15.0424 54.712 11.75 63 11.75C71.288 11.75 79.2366 15.0424 85.0971 20.9029C90.9576 26.7634 94.25 34.712 94.25 43Z" fill="#145397"/>
<path d="M63 53.4201C68.7548 53.4201 73.42 48.7549 73.42 43.0001C73.42 37.2453 68.7548 32.5801 63 32.5801C57.2452 32.5801 52.58 37.2453 52.58 43.0001C52.58 48.7549 57.2452 53.4201 63 53.4201Z" fill="#D3E8FE"/>
<path d="M-62 1.33008L-20.33 43.0001L21.33 1.33008H-62Z" fill="#1A6FCA"/>
<path d="M-20.33 1.33008V43.0001L21.33 84.6701V1.33008H-20.33Z" fill="#145397"/>
<path d="M-62 84.67L-20.33 43L21.33 84.67H-62Z" fill="#0D3865"/>
<path d="M63 84.6699V95.0799C54.712 95.0799 46.7634 98.3723 40.9029 104.233C35.0424 110.093 31.75 118.042 31.75 126.33H21.33V84.6699H63Z" fill="#145397"/>
<path d="M104.67 126.33V168H63V157.58C71.288 157.58 79.2366 154.288 85.0971 148.427C90.9576 142.567 94.25 134.618 94.25 126.33H104.67Z" fill="#145397"/>
<path d="M63 95.0801V126.33H31.75C31.75 118.042 35.0424 110.093 40.9029 104.233C46.7634 98.3725 54.712 95.0801 63 95.0801Z" fill="#D3E8FE"/>
<path d="M94.25 126.33C94.25 134.618 90.9576 142.567 85.0971 148.427C79.2366 154.288 71.288 157.58 63 157.58V126.33H94.25Z" fill="#D3E8FE"/>
<path d="M31.75 126.33H63V157.58C54.712 157.58 46.7634 154.288 40.9029 148.427C35.0424 142.567 31.75 134.618 31.75 126.33Z" fill="#0D3865"/>
<path d="M94.25 126.33H63V95.0801C71.288 95.0801 79.2366 98.3725 85.0971 104.233C90.9576 110.093 94.25 118.042 94.25 126.33Z" fill="#0D3865"/>
<path d="M104.67 126.33C104.67 137.38 109.059 147.977 116.871 155.792C124.684 163.606 135.28 167.997 146.33 168V84.6699C140.859 84.6699 135.442 85.7475 130.387 87.8411C125.333 89.9347 120.74 93.0034 116.872 96.8719C113.003 100.74 109.935 105.333 107.841 110.387C105.748 115.442 104.67 120.859 104.67 126.33Z" fill="#218BFC"/>
<path d="M125.5 126.33C125.499 129.066 126.037 131.776 127.083 134.304C128.129 136.833 129.663 139.13 131.597 141.066C133.532 143.001 135.829 144.536 138.356 145.583C140.884 146.631 143.594 147.17 146.33 147.17V105.5C143.594 105.499 140.885 106.037 138.357 107.083C135.829 108.129 133.533 109.664 131.598 111.598C129.664 113.533 128.129 115.829 127.083 118.357C126.037 120.885 125.499 123.594 125.5 126.33Z" fill="#D3E8FE"/>
<path d="M146.33 115.92V136.75C143.624 136.666 141.056 135.532 139.171 133.588C137.287 131.644 136.233 129.043 136.233 126.335C136.233 123.627 137.287 121.026 139.171 119.082C141.056 117.138 143.624 116.004 146.33 115.92Z" fill="#145397"/>
<path d="M156.75 126.33C156.747 129.093 155.649 131.741 153.695 133.695C151.742 135.649 149.093 136.747 146.33 136.75V115.92C149.092 115.92 151.741 117.016 153.695 118.968C155.648 120.92 156.747 123.568 156.75 126.33Z" fill="#0D3865"/>
<path d="M167.17 126.33C167.17 131.857 164.974 137.158 161.066 141.066C157.158 144.974 151.857 147.17 146.33 147.17V136.75C147.725 136.793 149.114 136.556 150.416 136.052C151.717 135.548 152.904 134.788 153.906 133.816C154.908 132.845 155.704 131.682 156.248 130.397C156.792 129.112 157.073 127.731 157.073 126.335C157.073 124.939 156.792 123.558 156.248 122.273C155.704 120.988 154.908 119.825 153.906 118.854C152.904 117.882 151.717 117.122 150.416 116.618C149.114 116.114 147.725 115.877 146.33 115.92V105.5C149.066 105.499 151.776 106.037 154.304 107.083C156.833 108.129 159.13 109.663 161.066 111.597C163.001 113.532 164.536 115.829 165.583 118.356C166.631 120.884 167.17 123.594 167.17 126.33Z" fill="#1A6FCA"/>
<path d="M188 126.33C188 137.381 183.61 147.98 175.795 155.795C167.981 163.61 157.382 168 146.33 168V147.17C149.105 147.231 151.863 146.737 154.444 145.717C157.025 144.697 159.377 143.172 161.36 141.232C163.344 139.291 164.92 136.973 165.996 134.415C167.072 131.857 167.626 129.11 167.626 126.335C167.626 123.56 167.072 120.813 165.996 118.254C164.92 115.696 163.344 113.379 161.36 111.438C159.377 109.498 157.025 107.973 154.444 106.953C151.863 105.933 149.105 105.439 146.33 105.5V84.6699C157.38 84.6699 167.977 89.0588 175.792 96.8712C183.606 104.684 187.997 115.28 188 126.33Z" fill="#D3E8FE"/>
<path d="M188 84.6699L229.67 126.33L271.33 84.6699H188Z" fill="#1A6FCA"/>
<path d="M188 168L229.67 126.33L271.33 168H188Z" fill="#145397"/>
<path d="M354.67 84.6699V168L327.73 141.06C331.637 137.153 333.831 131.855 333.831 126.33C333.831 120.805 331.637 115.507 327.73 111.6C323.823 107.693 318.525 105.499 313 105.499C307.475 105.499 302.177 107.693 298.27 111.6L271.33 84.6699H354.67Z" fill="#0D3865"/>
<path d="M333.83 126.33C333.834 129.066 333.296 131.776 332.25 134.304C331.203 136.831 329.667 139.128 327.73 141.06L298.27 111.6C301.183 108.686 304.895 106.702 308.936 105.898C312.977 105.095 317.165 105.507 320.972 107.084C324.778 108.66 328.031 111.331 330.32 114.756C332.609 118.182 333.83 122.21 333.83 126.33Z" fill="#D3E8FE"/>
<path d="M327.73 141.06C323.823 144.967 318.525 147.161 313 147.161C307.475 147.161 302.177 144.967 298.27 141.06C294.363 137.153 292.169 131.855 292.169 126.33C292.169 120.805 294.363 115.507 298.27 111.6L327.73 141.06Z" fill="#0D3865"/>
<path d="M375.5 84.6699H354.67V126.34H375.5V84.6699Z" fill="#1A6FCA"/>
<path d="M417.16 84.6699H396.33V126.34H417.16V84.6699Z" fill="#1A6FCA"/>
<path d="M396.33 126.33H375.5V168H396.33V126.33Z" fill="#145397"/>
<path d="M438 126.33H417.17V168H438V126.33Z" fill="#145397"/>
<path d="M458.83 84.6699H438V105.5H458.83V84.6699Z" fill="#1A6FCA"/>
<path d="M479.66 105.5H458.83V126.33H479.66V105.5Z" fill="#145397"/>
<path d="M500.5 84.6699H479.67V105.5H500.5V84.6699Z" fill="#1A6FCA"/>
<path d="M521.33 105.5H500.5V126.33H521.33V105.5Z" fill="#145397"/>
<path d="M458.83 126.33H438V147.16H458.83V126.33Z" fill="#D3E8FE"/>
<path d="M479.66 147.17H458.83V168H479.66V147.17Z" fill="#145397"/>
<path d="M500.5 126.33H479.67V147.16H500.5V126.33Z" fill="#D3E8FE"/>
<path d="M521.33 147.17H500.5V168H521.33V147.17Z" fill="#145397"/>
<path d="M604.67 168H521.33L531.75 157.58H594.25L604.67 168Z" fill="#1A6FCA"/>
<path d="M594.25 157.58H531.75L563 126.33L594.25 157.58Z" fill="#D3E8FE"/>
<path d="M594.25 95.0801V157.58L563 126.33L531.75 157.58V95.0801H594.25Z" fill="#145397"/>
<path d="M667.17 126.33H604.67V84.6699H667.17C672.694 84.6699 677.993 86.8645 681.899 90.7709C685.805 94.6773 688 99.9755 688 105.5C688 111.024 685.805 116.323 681.899 120.229C677.993 124.135 672.694 126.33 667.17 126.33Z" fill="#0D3865"/>
<path d="M604.67 126.33H667.17C669.906 126.33 672.616 126.869 675.144 127.917C677.671 128.964 679.968 130.499 681.903 132.435C683.837 134.37 685.371 136.667 686.417 139.196C687.464 141.724 688.001 144.434 688 147.17C688 149.906 687.461 152.614 686.414 155.141C685.368 157.669 683.833 159.965 681.899 161.899C679.965 163.833 677.669 165.368 675.141 166.414C672.614 167.461 669.905 168 667.17 168H604.67V126.33Z" fill="#145397"/>
<path d="M646.34 84.6699H604.67V126.34H646.34V84.6699Z" fill="#D3E8FE"/>
<path d="M646.34 126.33H604.67V168H646.34V126.33Z" fill="#0D3865"/>
<path d="M625.5 168H604.67V188.83H625.5V168Z" fill="#1A6FCA"/>
<path d="M625.5 209.67H604.67V230.5H625.5V209.67Z" fill="#D3E8FE"/>
<path d="M646.33 188.83H625.5V209.66H646.33V188.83Z" fill="#1A6FCA"/>
<path d="M646.33 230.5H625.5V251.33H646.33V230.5Z" fill="#D3E8FE"/>
<path d="M583.83 188.83C583.831 191.566 583.293 194.276 582.247 196.804C581.201 199.333 579.667 201.63 577.733 203.565C575.798 205.501 573.501 207.036 570.974 208.083C568.446 209.131 565.736 209.67 563 209.67V168C565.736 167.999 568.445 168.537 570.973 169.583C573.501 170.629 575.797 172.164 577.732 174.098C579.667 176.033 581.201 178.329 582.247 180.857C583.293 183.385 583.831 186.094 583.83 188.83Z" fill="#1A6FCA"/>
<path d="M583.83 230.5C583.831 233.236 583.293 235.945 582.247 238.473C581.201 241.001 579.667 243.297 577.732 245.232C575.797 247.166 573.501 248.701 570.973 249.747C568.445 250.793 565.736 251.331 563 251.33V209.67C565.736 209.669 568.445 210.206 570.973 211.253C573.501 212.299 575.797 213.833 577.732 215.768C579.667 217.702 581.201 219.999 582.247 222.527C583.293 225.055 583.831 227.764 583.83 230.5Z" fill="#218BFC"/>
<path d="M563 168V209.67C557.553 209.551 552.37 207.303 548.56 203.409C544.75 199.514 542.616 194.283 542.616 188.835C542.616 183.387 544.75 178.155 548.56 174.261C552.37 170.367 557.553 168.119 563 168Z" fill="#D3E8FE"/>
<path d="M563 209.67V251.33C557.476 251.33 552.177 249.135 548.271 245.229C544.365 241.323 542.17 236.024 542.17 230.5C542.17 224.975 544.365 219.677 548.271 215.771C552.177 211.864 557.476 209.67 563 209.67Z" fill="#D3E8FE"/>
<path d="M542.17 230.5C542.169 233.236 542.707 235.945 543.753 238.473C544.799 241.001 546.333 243.297 548.268 245.232C550.203 247.166 552.499 248.701 555.027 249.747C557.555 250.793 560.264 251.331 563 251.33H521.33V168H563C557.553 168.119 552.37 170.367 548.56 174.261C544.75 178.155 542.616 183.387 542.616 188.835C542.616 194.283 544.75 199.514 548.56 203.409C552.37 207.303 557.553 209.551 563 209.67C560.264 209.669 557.555 210.207 555.027 211.253C552.499 212.299 550.203 213.834 548.268 215.768C546.333 217.703 544.799 219.999 543.753 222.527C542.707 225.055 542.169 227.764 542.17 230.5Z" fill="#0D3865"/>
<path d="M521.33 209.67C510.281 209.67 499.685 214.059 491.872 221.872C484.059 229.685 479.67 240.281 479.67 251.33H521.33V209.67Z" fill="#1A6FCA"/>
<path d="M479.67 209.67C474.198 209.669 468.78 210.745 463.724 212.838C458.669 214.931 454.075 218 450.205 221.868C446.336 225.737 443.266 230.33 441.172 235.385C439.078 240.44 438 245.858 438 251.33H479.67V209.67Z" fill="#1A6FCA"/>
<path d="M438 209.67C449.052 209.67 459.651 205.28 467.465 197.465C475.28 189.651 479.67 179.052 479.67 168H438V209.67Z" fill="#1A6FCA"/>
<path d="M479.67 209.67C490.72 209.667 501.316 205.276 509.129 197.462C516.941 189.647 521.33 179.05 521.33 168H479.67V209.67Z" fill="#1A6FCA"/>
<path d="M375.5 188.83V230.5L354.67 251.33V168L375.5 188.83Z" fill="#D3E8FE"/>
<path d="M396.33 209.67L375.5 230.5V188.83L396.33 209.67Z" fill="#0D3865"/>
<path d="M396.33 188.83V209.67L375.5 188.83V168L396.33 188.83Z" fill="#145397"/>
<path d="M375.5 230.5L396.33 209.67V230.5L375.5 251.33V230.5Z" fill="#145397"/>
<path d="M417.17 209.67L396.33 230.5V188.83L417.17 209.67Z" fill="#1A6FCA"/>
<path d="M438 209.67L396.33 251.33V230.5L417.17 209.67L396.33 188.83V168L438 209.67Z" fill="#0D3865"/>
<path d="M313 168V188.83C310.264 188.83 307.554 189.369 305.026 190.417C302.499 191.464 300.202 192.999 298.267 194.935C296.333 196.87 294.799 199.167 293.753 201.696C292.706 204.224 292.169 206.934 292.17 209.67H271.33C271.33 198.618 275.72 188.02 283.535 180.205C291.349 172.39 301.948 168 313 168Z" fill="#0D3865"/>
<path d="M354.67 209.67C354.667 220.72 350.276 231.316 342.462 239.129C334.647 246.941 324.05 251.33 313 251.33V230.5C318.447 230.381 323.63 228.133 327.44 224.239C331.25 220.345 333.384 215.113 333.384 209.665C333.384 204.217 331.25 198.986 327.44 195.091C323.63 191.197 318.447 188.949 313 188.83V168C324.052 168 334.651 172.39 342.465 180.205C350.28 188.02 354.67 198.618 354.67 209.67Z" fill="#D3E8FE"/>
<path d="M313 230.5V251.33C301.95 251.33 291.353 246.941 283.538 239.129C275.724 231.316 271.333 220.72 271.33 209.67H292.17C292.169 212.406 292.707 215.115 293.753 217.643C294.799 220.171 296.334 222.467 298.268 224.402C300.203 226.336 302.499 227.871 305.027 228.917C307.555 229.963 310.264 230.501 313 230.5Z" fill="#145397"/>
<path d="M313 188.83V209.67H292.17C292.169 206.934 292.707 204.224 293.753 201.696C294.799 199.167 296.333 196.87 298.267 194.935C300.202 192.999 302.499 191.464 305.026 190.417C307.554 189.369 310.264 188.83 313 188.83Z" fill="#D3E8FE"/>
<path d="M313 209.67V230.5C310.264 230.501 307.555 229.963 305.027 228.917C302.499 227.871 300.203 226.336 298.268 224.402C296.334 222.467 294.799 220.171 293.753 217.643C292.707 215.115 292.169 212.406 292.17 209.67H313Z" fill="#218BFC"/>
<path d="M333.83 209.67C333.831 212.406 333.293 215.115 332.247 217.643C331.201 220.171 329.666 222.468 327.732 224.402C325.797 226.337 323.501 227.871 320.973 228.917C318.445 229.964 315.736 230.501 313 230.5V188.83C315.736 188.83 318.446 189.369 320.974 190.417C323.501 191.464 325.798 192.999 327.733 194.935C329.667 196.87 331.201 199.167 332.247 201.696C333.294 204.224 333.831 206.934 333.83 209.67Z" fill="#145397"/>
<path d="M229.67 209.67V230.5H219.25V220.08H208.83V209.67H229.67Z" fill="#D3E8FE"/>
<path d="M219.25 220.08H208.83V230.5H219.25V220.08Z" fill="#1A6FCA"/>
<path d="M219.25 230.5V240.92H198.42V220.08H208.83V230.5H219.25Z" fill="#145397"/>
<path d="M250.5 199.25V209.67H229.67V188.83H240.08V199.25H250.5Z" fill="#D3E8FE"/>
<path d="M250.5 188.83H240.08V199.25H250.5V188.83Z" fill="#1A6FCA"/>
<path d="M260.92 178.42V199.25H250.5V188.83H240.08V178.42H260.92Z" fill="#145397"/>
<path d="M250.5 209.67H229.67V230.5H250.5V209.67Z" fill="#0D3865"/>
<path d="M271.33 209.67V251.33H229.67V230.5H250.5V209.67H271.33Z" fill="#145397"/>
<path d="M229.66 188.83H208.83V209.66H229.66V188.83Z" fill="#0D3865"/>
<path d="M229.67 168V188.83H208.83V209.67H188V168H229.67Z" fill="#D3E8FE"/>
<path d="M146.33 168V209.67H104.67L146.33 168Z" fill="#D3E8FE"/>
<path d="M146.33 209.67V251.33H104.67L146.33 209.67Z" fill="#D3E8FE"/>
<path d="M188 251.33H146.33V209.67L188 251.33Z" fill="#0D3865"/>
<path d="M188 209.67H146.33V168L188 209.67Z" fill="#0D3865"/>
<path d="M188 168V209.67L146.33 168H188Z" fill="#1A6FCA"/>
<path d="M146.33 209.67H188V251.33L146.33 209.67Z" fill="#1A6FCA"/>
<path d="M63 251.33H21.33V209.67C21.3327 220.72 25.7241 231.316 33.5384 239.129C41.3528 246.941 51.9502 251.33 63 251.33Z" fill="#1A6FCA"/>
<path d="M104.67 168V209.67C104.67 198.618 100.28 188.02 92.4651 180.205C84.6505 172.39 74.0516 168 63 168H104.67Z" fill="#D3E8FE"/>
<path d="M104.67 209.67H63V168C74.0516 168 84.6505 172.39 92.4651 180.205C100.28 188.02 104.67 198.618 104.67 209.67Z" fill="#218BFC"/>
<path d="M73.42 199.25V180.2C77.8003 181.77 81.7771 184.293 85.063 187.588C88.3489 190.882 90.8618 194.866 92.42 199.25H73.42Z" fill="#1A6FCA"/>
<path d="M63 209.67V251.33C51.9502 251.33 41.3528 246.941 33.5384 239.129C25.7241 231.316 21.3327 220.72 21.33 209.67H63Z" fill="#145397"/>
<path d="M52.58 239.13C48.1987 237.562 44.2209 235.04 40.9347 231.745C37.6486 228.45 35.1364 224.466 33.58 220.08H52.58V239.13Z" fill="#218BFC"/>
<path d="M63 168V209.67H21.33C21.33 198.618 25.7202 188.02 33.5349 180.205C41.3495 172.39 51.9484 168 63 168Z" fill="#D3E8FE"/>
<path d="M33.54 199.25C35.0982 194.866 37.6111 190.882 40.897 187.588C44.1829 184.293 48.1597 181.77 52.54 180.2V199.25H33.54Z" fill="#218BFC"/>
<path d="M104.67 209.67C104.667 220.72 100.276 231.316 92.4616 239.129C84.6473 246.941 74.0498 251.33 63 251.33V209.67H104.67Z" fill="#D3E8FE"/>
<path d="M73.42 220.08H92.42C90.8636 224.466 88.3514 228.45 85.0652 231.745C81.7791 235.04 77.8013 237.562 73.42 239.13V220.08Z" fill="#218BFC"/>
<path d="M21.33 240.92H-62V251.34H21.33V240.92Z" fill="#145397"/>
<path d="M21.33 220.08H-62V230.5H21.33V220.08Z" fill="#1A6FCA"/>
<path d="M21.33 199.25H-62V209.67H21.33V199.25Z" fill="#145397"/>
<path d="M21.33 178.42H-62V188.84H21.33V178.42Z" fill="#1A6FCA"/>
<path d="M21.34 251.33H10.92V334.66H21.34V251.33Z" fill="#145397"/>
<path d="M0.500015 251.33H-9.91998V334.66H0.500015V251.33Z" fill="#0D3865"/>
<path d="M63.0105 251.327L21.3407 292.997L63.0105 334.666L104.68 292.997L63.0105 251.327Z" fill="#0D3865"/>
<path d="M62.9963 266.063L36.0626 292.997L62.9963 319.93L89.93 292.997L62.9963 266.063Z" fill="#145397"/>
<path d="M177.58 261.75H115.08V324.25H177.58V261.75Z" fill="#145397"/>
<path d="M177.581 292.997L146.334 261.75L115.087 292.997L146.334 324.244L177.581 292.997Z" fill="#D3E8FE"/>
<path d="M156.759 292.997L146.344 282.581L135.928 292.997L146.344 303.412L156.759 292.997Z" fill="#1A6FCA"/>
<path d="M235.509 276.746L210.102 251.34L188.005 273.437L213.411 298.843L235.509 276.746Z" fill="#1A6FCA"/>
<path d="M271.331 312.57L245.925 287.164L223.828 309.261L249.234 334.667L271.331 312.57Z" fill="#1A6FCA"/>
<path d="M188 334.67V324.25L260.92 251.33H271.33V261.75L198.42 334.67H188Z" fill="#0D3865"/>
<path d="M313 303.42C318.755 303.42 323.42 298.755 323.42 293C323.42 287.245 318.755 282.58 313 282.58C307.245 282.58 302.58 287.245 302.58 293C302.58 298.755 307.245 303.42 313 303.42Z" fill="#0D3865"/>
<path d="M333.83 303.42C339.585 303.42 344.25 298.755 344.25 293C344.25 287.245 339.585 282.58 333.83 282.58C328.075 282.58 323.41 287.245 323.41 293C323.41 298.755 328.075 303.42 333.83 303.42Z" fill="#0D3865"/>
<path d="M292.17 303.42C297.925 303.42 302.59 298.755 302.59 293C302.59 287.245 297.925 282.58 292.17 282.58C286.415 282.58 281.75 287.245 281.75 293C281.75 298.755 286.415 303.42 292.17 303.42Z" fill="#0D3865"/>
<path d="M323.41 251.33H302.58V282.58H323.41V251.33Z" fill="#D3E8FE"/>
<path d="M323.41 303.42H302.58V334.67H323.41V303.42Z" fill="#D3E8FE"/>
<path d="M354.67 251.33H344.25V334.66H354.67V251.33Z" fill="#145397"/>
<path d="M281.75 251.33H271.33V334.66H281.75V251.33Z" fill="#145397"/>
<path d="M385.92 263.54V322.46C379.825 320.309 374.546 316.321 370.813 311.045C367.079 305.768 365.075 299.464 365.075 293C365.075 286.536 367.079 280.232 370.813 274.955C374.546 269.679 379.825 265.691 385.92 263.54Z" fill="#0D3865"/>
<path d="M427.58 293C427.584 299.463 425.583 305.767 421.852 311.044C418.121 316.32 412.844 320.309 406.75 322.46V263.54C412.844 265.691 418.121 269.68 421.852 274.956C425.583 280.233 427.584 286.538 427.58 293Z" fill="#1A6FCA"/>
<path d="M406.75 263.54V322.46C400.012 324.847 392.658 324.847 385.92 322.46V263.54C392.658 261.153 400.012 261.153 406.75 263.54Z" fill="#145397"/>
<path d="M406.75 251.33V263.54C400.012 261.153 392.658 261.153 385.92 263.54V251.33H406.75Z" fill="#145397"/>
<path d="M396.33 324.25C399.88 324.254 403.405 323.649 406.75 322.46V334.67H385.92V322.46C389.262 323.648 392.783 324.253 396.33 324.25Z" fill="#145397"/>
<path d="M500.5 272.17H458.83V313.84H500.5V272.17Z" fill="#0D3865"/>
<path d="M490.08 282.58H469.25V303.41H490.08V282.58Z" fill="#D3E8FE"/>
<path d="M510.92 272.17C516.675 272.17 521.34 267.505 521.34 261.75C521.34 255.995 516.675 251.33 510.92 251.33C505.165 251.33 500.5 255.995 500.5 261.75C500.5 267.505 505.165 272.17 510.92 272.17Z" fill="#D3E8FE"/>
<path d="M510.92 334.67C516.675 334.67 521.34 330.005 521.34 324.25C521.34 318.495 516.675 313.83 510.92 313.83C505.165 313.83 500.5 318.495 500.5 324.25C500.5 330.005 505.165 334.67 510.92 334.67Z" fill="#D3E8FE"/>
<path d="M448.42 334.67C454.175 334.67 458.84 330.005 458.84 324.25C458.84 318.495 454.175 313.83 448.42 313.83C442.665 313.83 438 318.495 438 324.25C438 330.005 442.665 334.67 448.42 334.67Z" fill="#D3E8FE"/>
<path d="M448.42 272.17C454.175 272.17 458.84 267.505 458.84 261.75C458.84 255.995 454.175 251.33 448.42 251.33C442.665 251.33 438 255.995 438 261.75C438 267.505 442.665 272.17 448.42 272.17Z" fill="#D3E8FE"/>
<path d="M563 293L604.67 251.33H563V293Z" fill="#1A6FCA"/>
<path d="M563 293H604.67V251.33L563 293Z" fill="#145397"/>
<path d="M521.33 334.67L563 293H521.33V334.67Z" fill="#1A6FCA"/>
<path d="M521.33 334.67H563V293L521.33 334.67Z" fill="#145397"/>
<path d="M646.33 293C643.594 292.999 640.885 293.536 638.357 294.583C635.829 295.629 633.533 297.163 631.598 299.098C629.664 301.032 628.129 303.329 627.083 305.857C626.037 308.385 625.499 311.094 625.5 313.83V272.17C625.499 274.906 626.037 277.615 627.083 280.143C628.129 282.671 629.664 284.967 631.598 286.902C633.533 288.836 635.829 290.371 638.357 291.417C640.885 292.463 643.594 293.001 646.33 293Z" fill="#218BFC"/>
<path d="M667.17 272.17C667.051 277.617 664.803 282.8 660.909 286.61C657.014 290.42 651.783 292.553 646.335 292.553C640.887 292.553 635.655 290.42 631.761 286.61C627.867 282.8 625.619 277.617 625.5 272.17H667.17Z" fill="#D3E8FE"/>
<path d="M667.17 272.17H625.5C625.439 269.396 625.933 266.637 626.953 264.056C627.973 261.475 629.498 259.123 631.438 257.14C633.379 255.156 635.697 253.58 638.255 252.504C640.813 251.428 643.56 250.874 646.335 250.874C649.11 250.874 651.857 251.428 654.415 252.504C656.974 253.58 659.291 255.156 661.232 257.14C663.172 259.123 664.697 261.475 665.717 264.056C666.737 266.637 667.231 269.396 667.17 272.17Z" fill="#1A6FCA"/>
<path d="M667.17 313.83H625.5C625.619 308.383 627.867 303.2 631.761 299.39C635.655 295.58 640.887 293.447 646.335 293.447C651.783 293.447 657.014 295.58 660.909 299.39C664.803 303.2 667.051 308.383 667.17 313.83Z" fill="#145397"/>
<path d="M667.17 313.83C667.231 316.605 666.737 319.363 665.717 321.944C664.697 324.525 663.172 326.877 661.232 328.86C659.291 330.844 656.974 332.42 654.415 333.496C651.857 334.572 649.11 335.127 646.335 335.127C643.56 335.127 640.813 334.572 638.255 333.496C635.697 332.42 633.379 330.844 631.438 328.86C629.498 326.877 627.973 324.525 626.953 321.944C625.933 319.363 625.439 316.605 625.5 313.83H667.17Z" fill="#1A6FCA"/>
<path d="M604.67 334.67H646.33C640.858 334.662 635.439 335.737 630.385 337.833C625.331 339.928 620.741 343.003 616.88 346.88L604.67 334.67Z" fill="#D3E8FE"/>
<path d="M675.79 346.88L646.33 376.33L616.88 346.88C620.746 343.009 625.338 339.938 630.392 337.842C635.446 335.747 640.864 334.669 646.335 334.669C651.806 334.669 657.224 335.747 662.278 337.842C667.332 339.938 671.924 343.009 675.79 346.88Z" fill="#145397"/>
<path d="M455.781 352.448C459.85 348.378 459.85 341.781 455.781 337.712C451.711 333.642 445.114 333.642 441.045 337.712C436.975 341.781 436.975 348.378 441.045 352.448C445.114 356.517 451.711 356.517 455.781 352.448Z" fill="#218BFC"/>
<path d="M518.285 352.444C522.354 348.374 522.354 341.777 518.285 337.708C514.216 333.638 507.618 333.638 503.549 337.708C499.479 341.777 499.479 348.374 503.549 352.444C507.618 356.513 514.216 356.513 518.285 352.444Z" fill="#218BFC"/>
<path d="M385.92 334.67H354.67V365.92H385.92V334.67Z" fill="#218BFC"/>
<path d="M438 334.67H406.75V365.92H438V334.67Z" fill="#D3E8FE"/>
<path d="M313 334.67C313.002 338.192 312.558 341.699 311.68 345.11C303.857 345.443 296.444 348.701 290.907 354.237C285.371 359.774 282.114 367.187 281.78 375.01C278.367 375.894 274.855 376.337 271.33 376.33V334.67H313Z" fill="#0D3865"/>
<path d="M186.885 385.886C192.172 363.488 178.3 341.045 155.901 335.758C133.503 330.472 111.06 344.344 105.774 366.742C100.487 389.14 114.359 411.583 136.757 416.87C159.156 422.156 181.599 408.284 186.885 385.886Z" fill="#145397"/>
<path d="M21.33 334.67L63 376.33L104.67 334.67H21.33Z" fill="#145397"/>
<path d="M21.33 334.67V418L0.5 397.17V355.5H-41.17L-62 334.67H21.33Z" fill="#D3E8FE"/>
<path d="M21.33 84.6699L-20.33 126.34L-62 84.6699H21.33Z" fill="#1A6FCA"/>
<path d="M21.33 84.6699V168L-20.33 126.34L21.33 84.6699Z" fill="#D3E8FE"/>
<path d="M21.33 168H-62L-20.33 126.34L21.33 168Z" fill="#218BFC"/>
</g>
</g>
</g>
<defs>
<clipPath id="clip0_81_865">
<rect width="750" height="500" fill="white" transform="translate(-62 -82)"/>
</clipPath>
</defs>
</svg>
