<svg width="402" height="719" viewBox="0 0 402 719" fill="none" xmlns="http://www.w3.org/2000/svg">
<g clip-path="url(#clip0_119_91)">
<path d="M256.751 30.1009L209.578 84.7058H166.025L239.114 0H274.671L347.854 84.7058H303.878L256.751 30.1009Z" fill="#7AB9FD"/>
<path d="M84.7059 160.429V199.137L30.1009 240.62L84.7059 282.103V320.481L4.57764e-05 256.094V224.817L84.7059 160.429Z" fill="#7AB9FD"/>
<path d="M84.7059 436.322L30.1009 477.805L84.7059 519.335V557.667L4.57764e-05 493.326V462.049L84.7059 397.661V436.322Z" fill="#7AB9FD"/>
<path d="M256.751 688.323L303.878 633.766H347.477L274.342 718.424H238.832L165.649 633.766H209.625L256.751 688.323Z" fill="#7AB9FD"/>
<path d="M391.547 84.753L391.5 79.4383V84.753H373.91L300.774 0.0471191H344.373L391.5 54.605L438.627 0.0471191H482.226L409.09 84.753H391.547Z" fill="#D3E8FE"/>
<path d="M122.05 84.7529L122.003 70.2668V84.7058H101.591L16.9318 0H67.3979L122.003 54.6049L169.13 0.0470327H212.729L139.593 84.7529H122.05Z" fill="#D3E8FE"/>
<path d="M0.0470581 279.374L84.7059 343.714V359.188H77.1806H84.7059V374.709L0.0470581 439.049V400.718L54.5579 359.235L0.0470581 317.705V279.374Z" fill="#D3E8FE"/>
<path d="M391.453 633.718V639.033V633.718H409.09L482.179 718.424H438.627L391.5 663.866L344.326 718.424H300.774L373.91 633.718H391.453Z" fill="#D3E8FE"/>
<path d="M0.0470581 16.5085L84.7059 101.261V122.003V137.477L0.0470581 201.864V163.486L54.605 122.003L0.0470581 67.4449V16.5085Z" fill="#D3E8FE"/>
<path d="M54.5579 596.421L0.0470581 554.939V516.607L84.7059 580.948V596.421H71.0193H84.7059V616.834L4.57764e-05 701.492V651.026L54.5579 596.421Z" fill="#D3E8FE"/>
<path d="M122.003 633.718H139.593L212.682 718.424H169.129L122.003 663.866L67.3978 718.424H16.5084L101.261 633.718H122.003Z" fill="#D3E8FE"/>
<path d="M391.547 0.0471191H413.276L391.5 25.2566L391.547 0.0471191Z" fill="#A6D1FE"/>
<path d="M278.481 84.6585H234.975L256.751 59.449L278.481 84.6585Z" fill="#A6D1FE"/>
<path d="M369.771 0.0471191H391.5V25.2566L369.771 0.0471191Z" fill="#A6D1FE"/>
<path d="M0.0470753 340.094L25.2566 359.236L0.0470753 359.189V340.094Z" fill="#A6D1FE"/>
<path d="M84.6589 259.762L59.4494 240.62L84.6589 221.477V259.762Z" fill="#A6D1FE"/>
<path d="M84.6589 496.994L59.4494 477.852L84.6589 458.71V496.994Z" fill="#A6D1FE"/>
<path d="M0.0470753 359.189L25.2566 359.236L0.0470753 378.378V359.189Z" fill="#A6D1FE"/>
<path d="M391.453 718.377H369.724L391.5 693.167L391.453 718.377Z" fill="#A6D1FE"/>
<path d="M256.751 658.975L234.975 633.766H278.527L256.751 658.975Z" fill="#A6D1FE"/>
<path d="M122.003 693.167V693.214V693.167V693.214L143.732 718.377H122.003H96.8403L122.003 693.214V693.167Z" fill="#A6D1FE"/>
<path d="M413.229 718.377H391.453L391.5 693.167L413.229 718.377Z" fill="#A6D1FE"/>
<path d="M122.003 10.4884L122.05 0.0471191H143.779L122.05 25.2096V25.3037L122.003 25.2566L96.7932 0.0471191H122.003V10.4884Z" fill="#A6D1FE"/>
<path d="M25.2096 122.05L0.0470753 141.146V122.003V96.8408L25.2096 122.003H25.2566H25.2096L25.2566 122.05H25.2096Z" fill="#A6D1FE"/>
<path d="M0.0470657 596.421H9.03032H0.0470657V577.279L25.2096 596.374H25.3036L25.2566 596.421L0.0470657 621.631V596.421Z" fill="#A6D1FE"/>
</g>
<defs>
<clipPath id="clip0_119_91">
<rect width="783" height="718.424" fill="white" transform="matrix(-1 0 0 1 783 0)"/>
</clipPath>
</defs>
</svg>
